<?xml version="1.0" encoding="UTF-8" standalone="no"?>
<svg
   xmlns:dc="http://purl.org/dc/elements/1.1/"
   xmlns:cc="http://creativecommons.org/ns#"
   xmlns:rdf="http://www.w3.org/1999/02/22-rdf-syntax-ns#"
   xmlns:svg="http://www.w3.org/2000/svg"
   xmlns="http://www.w3.org/2000/svg"
   xmlns:sodipodi="http://sodipodi.sourceforge.net/DTD/sodipodi-0.dtd"
   xmlns:inkscape="http://www.inkscape.org/namespaces/inkscape"
   width="250"
   height="250"
   viewBox="0 0 66.145832 66.145835"
   version="1.1"
   id="svg8"
   sodipodi:docname="team.svg"
   inkscape:version="1.0.1 (3bc2e813f5, 2020-09-07)">
  <defs
     id="defs2" />
  <sodipodi:namedview
     id="base"
     pagecolor="#ffffff"
     bordercolor="#666666"
     borderopacity="1.0"
     inkscape:pageopacity="0.0"
     inkscape:pageshadow="2"
     inkscape:zoom="0.98994949"
     inkscape:cx="25.275255"
     inkscape:cy="95.347871"
     inkscape:document-units="mm"
     inkscape:current-layer="layer1"
     inkscape:document-rotation="0"
     showgrid="false"
     units="px"
     showguides="true"
     inkscape:guide-bbox="true"
     inkscape:window-width="1280"
     inkscape:window-height="737"
     inkscape:window-x="-8"
     inkscape:window-y="-8"
     inkscape:window-maximized="1" />
  <metadata
     id="metadata5">
    <rdf:RDF>
      <cc:Work
         rdf:about="">
        <dc:format>image/svg+xml</dc:format>
        <dc:type
           rdf:resource="http://purl.org/dc/dcmitype/StillImage" />
        <dc:title></dc:title>
      </cc:Work>
    </rdf:RDF>
  </metadata>
  <g
     inkscape:label="Layer 1"
     inkscape:groupmode="layer"
     id="layer1">
    <g
       id="g902">
      <path
         id="path857"
         style="fill:#ffffff;fill-opacity:0.75;stroke-width:0.167599;stroke-linecap:square;paint-order:markers fill stroke"
         d="m 33.04063,18.811398 a 4.9948158,4.9948158 0 0 0 -4.962604,4.994745 4.9948158,4.9948158 0 0 0 4.995041,4.994745 4.9948158,4.9948158 0 0 0 4.994746,-4.994745 4.9948158,4.9948158 0 0 0 -4.994746,-4.994745 4.9948158,4.9948158 0 0 0 -0.03243,0 z M 29.962041,29.30455 a 8.5595309,8.5595309 0 0 0 -5.448572,7.974253 8.5595309,8.5595309 0 0 0 0.01003,0.414607 c -0.0065,0.05955 -0.01003,0.120035 -0.01003,0.181353 v 8.10076 c 0,0.913806 0.73548,1.649581 1.649285,1.649581 h 13.820329 c 0.913808,0 1.649287,-0.735775 1.649287,-1.649581 v -8.10076 c 0,-0.06092 -0.0039,-0.121002 -0.01032,-0.180173 a 8.5595309,8.5595309 0 0 0 0.01032,-0.415787 8.5595309,8.5595309 0 0 0 -5.448572,-7.973958 5.2998427,5.2998427 0 0 1 -3.110731,1.009093 5.2998427,5.2998427 0 0 1 -3.111026,-1.009388 z" />
      <path
         id="path874"
         style="fill:#ffffff;fill-opacity:0.75;stroke-width:0.122102;stroke-linecap:square;paint-order:markers fill stroke"
         d="m 21.031465,18.509436 a 3.6388994,3.6388994 0 0 0 -3.615574,3.638868 3.6388994,3.6388994 0 0 0 3.639164,3.638869 3.6388994,3.6388994 0 0 0 3.638868,-3.638869 3.6388994,3.6388994 0 0 0 -3.638868,-3.638868 3.6388994,3.6388994 0 0 0 -0.02359,0 z m -2.242889,7.644573 a 6.2359201,6.2359201 0 0 0 -3.969434,5.80951 6.2359201,6.2359201 0 0 0 0.0071,0.302256 c -0.0047,0.04338 -0.0071,0.08743 -0.0071,0.132108 v 5.901514 c 0,0.665739 0.535618,1.201947 1.201359,1.201947 h 7.496246 v -1.928542 c 0,-0.06132 0.0035,-0.121806 0.01003,-0.181353 a 8.5595303,8.5595303 0 0 1 -0.01003,-0.414607 8.5595303,8.5595303 0 0 1 3.484054,-6.892324 6.2359201,6.2359201 0 0 0 -3.679563,-3.930214 3.8611221,3.8611221 0 0 1 -2.266183,0.735146 3.8611221,3.8611221 0 0 1 -2.266479,-0.735441 z" />
      <path
         id="path879"
         style="fill:#ffffff;fill-opacity:0.75;stroke-width:0.122102;stroke-linecap:square;paint-order:markers fill stroke"
         d="m 45.114372,18.509436 a 3.6388994,3.6388994 0 0 1 3.615574,3.638868 3.6388994,3.6388994 0 0 1 -3.639164,3.638869 3.6388994,3.6388994 0 0 1 -3.638869,-3.638869 3.6388994,3.6388994 0 0 1 3.638869,-3.638868 3.6388994,3.6388994 0 0 1 0.02359,0 z m 2.242888,7.644573 a 6.2359201,6.2359201 0 0 1 3.969435,5.80951 6.2359201,6.2359201 0 0 1 -0.0071,0.302256 c 0.0047,0.04338 0.0071,0.08743 0.0071,0.132108 v 5.901514 c 0,0.665739 -0.535618,1.201947 -1.201359,1.201947 H 42.62909 v -1.928542 c 0,-0.06132 -0.0035,-0.121806 -0.01003,-0.181353 a 8.5595303,8.5595303 0 0 0 0.01003,-0.414607 8.5595303,8.5595303 0 0 0 -3.484055,-6.892324 6.2359201,6.2359201 0 0 1 3.679564,-3.930214 3.8611221,3.8611221 0 0 0 2.266183,0.735146 3.8611221,3.8611221 0 0 0 2.266478,-0.735441 z" />
    </g>
  </g>
</svg>
